<?xml version="1.0" encoding="UTF-8"?>
<svg version="1.1" xmlns="http://www.w3.org/2000/svg" width="1000" height="1000">
<path d="M0 0 C330 0 660 0 1000 0 C1000 330 1000 660 1000 1000 C670 1000 340 1000 0 1000 C0 670 0 340 0 0 Z " fill="#FEFEFE" transform="translate(0,0)"/>
<path d="M0 0 C0.70640625 0.55300781 1.4128125 1.10601562 2.140625 1.67578125 C8.2132698 6.68451781 14.48578 12.92264521 18.00390625 20.02734375 C17.9958554 24.09302507 14.13091434 26.73693745 11.49609375 29.515625 C2.97169811 38 2.97169811 38 0 38 C0.3609375 39.02351563 0.721875 40.04703125 1.09375 41.1015625 C4.47764706 51.62455412 5.46999961 61.51127785 5.4375 72.5625 C5.43492187 73.83367676 5.43234375 75.10485352 5.4296875 76.41455078 C5.26461375 86.87885074 3.41319212 96.16255608 0.375 106.125 C0.14554688 106.89070312 -0.08390625 107.65640625 -0.3203125 108.4453125 C-0.87614812 110.29809792 -1.43747076 112.14923586 -2 114 C-1.20335937 114.33064453 -1.20335937 114.33064453 -0.390625 114.66796875 C2.85466678 116.47621139 5.50518218 118.840194 8.25 121.3125 C9.08144531 122.0230957 9.08144531 122.0230957 9.9296875 122.74804688 C12.24531578 124.83268268 13.83844147 126.42496115 14.69140625 129.4609375 C13.66796685 133.21933076 11.3322876 135.58282494 8.6875 138.3125 C8.14496582 138.88427979 7.60243164 139.45605957 7.04345703 140.04516602 C2.16022191 145.0681857 -3.10826754 149.20561986 -9 153 C-10.23169922 153.81210937 -10.23169922 153.81210937 -11.48828125 154.640625 C-31.66875636 167.38618823 -55.6768602 172.43238143 -79.11303711 167.61669922 C-103.92040447 161.81506882 -126.86215135 147.74719679 -140.9375 126.125 C-145.46161826 118.80151273 -148.96305589 111.04040076 -152 103 C-152.43570313 101.87851562 -152.87140625 100.75703125 -153.3203125 99.6015625 C-160.49167858 77.68626896 -157.16770392 51.23656359 -146.96923828 30.87548828 C-141.6211729 20.52691442 -135.16953263 12.18132128 -127 4 C-126.28199219 3.27039063 -125.56398438 2.54078125 -124.82421875 1.7890625 C-90.40657376 -31.00816606 -35.8907777 -28.63261087 0 0 Z " fill="#0C4476" transform="translate(211,427)"/>
<path d="M0 0 C2.46704257 0.01224647 4.9341129 0.0197387 7.40118408 0.02270508 C12.56671458 0.04108625 17.72973954 0.09863154 22.89453125 0.1875 C29.48597586 0.30039293 36.075447 0.34432581 42.66776657 0.36222839 C48.98709381 0.38295073 55.30593553 0.44105896 61.625 0.5 C62.81688683 0.50752289 64.00877365 0.51504578 65.23677826 0.52279663 C97.6679729 0.78714034 97.6679729 0.78714034 107.50390625 10.7578125 C112.01263426 15.81266813 112.4424415 20.1532328 112.35546875 26.71484375 C111.75468799 32.34187478 109.24392157 36.55946683 105.015625 40.25 C102.078125 42.3125 102.078125 42.3125 99.078125 43.3125 C100.43252714 46.35429954 101.93897038 48.39489455 104.3359375 50.6953125 C104.96113281 51.30503906 105.58632813 51.91476562 106.23046875 52.54296875 C106.88144531 53.16816406 107.53242187 53.79335938 108.203125 54.4375 C109.50189553 55.68543802 110.79641138 56.9378243 112.0859375 58.1953125 C112.65973145 58.74590332 113.23352539 59.29649414 113.82470703 59.86376953 C115.078125 61.3125 115.078125 61.3125 115.078125 63.3125 C94.72848364 65.94184862 94.72848364 65.94184862 88.92041016 61.75830078 C87.06489375 59.71465353 85.43249759 57.62083071 83.828125 55.375 C80.64198127 50.95006528 78.15858776 47.84359818 72.72509766 46.45654297 C64.49894741 45.52341791 56.32618832 45.80598948 48.078125 46.3125 C48.078125 51.9225 48.078125 57.5325 48.078125 63.3125 C41.808125 63.3125 35.538125 63.3125 29.078125 63.3125 C29.078125 52.7525 29.078125 42.1925 29.078125 31.3125 C33.37457031 31.26351563 37.67101562 31.21453125 42.09765625 31.1640625 C45.52194733 31.11953011 48.94619921 31.07303416 52.37044525 31.02520752 C55.98593902 30.97524936 59.60140154 30.92875754 63.21704102 30.890625 C66.69903628 30.85376876 70.18078677 30.8074083 73.66257286 30.75443649 C75.63839614 30.72686614 77.614349 30.7091575 79.59028625 30.69155884 C80.79130478 30.67168915 81.9923233 30.65181946 83.22973633 30.63134766 C84.28896805 30.61802399 85.34819977 30.60470032 86.43952942 30.5909729 C89.30779173 30.49472267 89.30779173 30.49472267 92.078125 28.3125 C92.66154853 24.85480809 92.66154853 24.85480809 92.078125 21.3125 C89.70079775 18.73331765 88.21768367 18.32903041 84.71185303 17.91377258 C83.35726517 17.88743972 82.00230184 17.8773345 80.64746094 17.88012695 C79.90560547 17.8699353 79.16375 17.85974365 78.39941406 17.84924316 C75.95369923 17.81911177 73.50837606 17.80984726 71.0625 17.80078125 C69.36426491 17.78393462 67.6660423 17.7657844 65.96783447 17.74638367 C61.50284726 17.69887557 57.0379106 17.66907153 52.57275391 17.64294434 C47.21282449 17.60790121 41.85308926 17.55088618 36.49331665 17.49755096 C28.35494396 17.4190275 20.21682564 17.36842946 12.078125 17.3125 C12.078125 32.4925 12.078125 47.6725 12.078125 63.3125 C5.808125 63.3125 -0.461875 63.3125 -6.921875 63.3125 C-6.921875 48.1325 -6.921875 32.9525 -6.921875 17.3125 C-16.491875 17.3125 -26.061875 17.3125 -35.921875 17.3125 C-35.261875 15.9925 -34.601875 14.6725 -33.921875 13.3125 C-33.49686707 12.3325708 -33.07185913 11.3526416 -32.63397217 10.34301758 C-25.45809962 -2.55509339 -13.26974366 -0.28738188 0 0 Z " fill="#023B71" transform="translate(522.921875,467.6875)"/>
<path d="M0 0 C2.2451775 -0.00964423 4.48941446 -0.04066037 6.734375 -0.07226562 C14.6195965 -0.13031573 21.74315872 0.2375089 29.1484375 3.24023438 C29.88634521 3.53043457 30.62425293 3.82063477 31.38452148 4.11962891 C38.01073004 6.86362369 42.09900065 11.94769648 45.81640625 17.91992188 C47.53892639 22.21359378 47.68420478 25.90342063 47.6484375 30.49023438 C47.64271729 31.33416748 47.63699707 32.17810059 47.63110352 33.04760742 C47.41102621 40.73401115 45.7942295 46.37021372 40.43359375 52.06054688 C29.9251115 61.58026603 17.78286398 62.73893512 4.0859375 62.55273438 C2.30219727 62.55756836 2.30219727 62.55756836 0.48242188 62.5625 C-11.37298926 62.49088576 -23.75660713 61.72056085 -32.92578125 53.34570312 C-40.1793005 45.39268307 -42.27960198 37.73137961 -42.12109375 27.11132812 C-41.38686463 19.29019184 -37.98426221 13.30095553 -32.2734375 7.99804688 C-22.297902 0.75773885 -11.84286522 0.03073408 0 0 Z " fill="#0367AC" transform="translate(897.8515625,468.759765625)"/>
<path d="M0 0 C5.63644757 4.93042074 8.49124414 10.66154844 9.20703125 18.15234375 C9.30988641 27.98529747 8.04371137 34.69116776 2.74609375 42.94921875 C-7.8798346 52.88215177 -22.68601731 54.15462121 -36.56640625 54.07421875 C-37.78650391 54.09419922 -39.00660156 54.11417969 -40.26367188 54.13476562 C-51.43751705 54.12882525 -63.34800183 52.1036161 -72.12890625 44.63671875 C-78.29644142 38.32349378 -80.25400105 30.1280154 -80.50390625 21.51171875 C-80.23571181 12.77305004 -77.28906065 5.91792422 -71.12890625 -0.36328125 C-65.33159199 -4.75013783 -59.22622294 -6.36488196 -52.12890625 -7.36328125 C-51.1234375 -7.53730469 -50.11796875 -7.71132813 -49.08203125 -7.890625 C-32.2432745 -9.90395461 -14.24188699 -10.37436538 0 0 Z " fill="#042553" transform="translate(396.12890625,477.36328125)"/>
<path d="M0 0 C1.82232903 0.05932205 1.82232903 0.05932205 3.68147278 0.11984253 C5.62906242 0.11743309 5.62906242 0.11743309 7.61599731 0.11497498 C11.15636866 0.11183369 14.69259423 0.17623051 18.23200607 0.25328851 C21.93800752 0.32231949 25.64411708 0.32853484 29.35066223 0.34156799 C36.36012724 0.37568188 43.36769234 0.46583815 50.37632275 0.57641238 C58.35915833 0.69960706 66.34208743 0.75990404 74.32563782 0.81506217 C90.73963039 0.92986789 107.15171496 1.12319228 123.56428528 1.36862183 C123.11448303 2.26532593 123.11448303 2.26532593 122.65559387 3.18014526 C121.79339061 4.90918106 120.94571339 6.64546006 120.10334778 8.38424683 C118.18928528 11.61862183 118.18928528 11.61862183 112.56428528 17.36862183 C105.96428528 17.36862183 99.36428528 17.36862183 92.56428528 17.36862183 C92.56428528 32.54862183 92.56428528 47.72862183 92.56428528 63.36862183 C86.29428528 63.36862183 80.02428528 63.36862183 73.56428528 63.36862183 C73.56428528 48.18862183 73.56428528 33.00862183 73.56428528 17.36862183 C58.38428528 17.36862183 43.20428528 17.36862183 27.56428528 17.36862183 C27.56428528 32.54862183 27.56428528 47.72862183 27.56428528 63.36862183 C21.29428528 63.36862183 15.02428528 63.36862183 8.56428528 63.36862183 C8.56428528 48.18862183 8.56428528 33.00862183 8.56428528 17.36862183 C-1.00571472 17.36862183 -10.57571472 17.36862183 -20.43571472 17.36862183 C-19.44571472 15.71862183 -18.45571472 14.06862183 -17.43571472 12.36862183 C-16.9137149 11.4279143 -16.39171509 10.48720678 -15.85389709 9.51799297 C-11.45069606 2.40765785 -8.39478169 0.11232842 0 0 Z " fill="#0067AB" transform="translate(743.4357147216797,467.6313781738281)"/>
<path d="M0 0 C0.83144531 -0.04898437 1.66289063 -0.09796875 2.51953125 -0.1484375 C8.23969067 0.97381925 11.30456743 5.33777702 14.4921875 9.8671875 C15.69083476 11.65576249 16.88046683 13.4504019 18.0625 15.25 C19.38166671 17.22212108 20.70201989 19.19344893 22.0234375 21.1640625 C22.70374023 22.18274414 23.38404297 23.20142578 24.08496094 24.25097656 C27.56114022 29.41600097 31.12375381 34.52017438 34.6875 39.625 C35.65598877 41.01501221 35.65598877 41.01501221 36.64404297 42.43310547 C37.26682129 43.32658691 37.88959961 44.22006836 38.53125 45.140625 C39.13195312 46.00365234 39.73265625 46.86667969 40.3515625 47.75585938 C41.62795662 49.5767578 42.91524438 51.39004887 44.2109375 53.19726562 C44.85289062 54.09638672 45.49484375 54.99550781 46.15625 55.921875 C46.73826172 56.72979492 47.32027344 57.53771484 47.91992188 58.37011719 C49.1875 60.375 49.1875 60.375 49.1875 62.375 C26.0875 62.375 2.9875 62.375 -20.8125 62.375 C-15.16720451 48.26176129 -15.16720451 48.26176129 -9.8125 45.375 C-1.6232295 43.81653169 6.93462295 44.64473975 15.1875 45.375 C14.73310547 44.71902832 14.27871094 44.06305664 13.81054688 43.38720703 C11.76471775 40.42809881 9.7260337 37.46413819 7.6875 34.5 C6.61435547 32.95119141 6.61435547 32.95119141 5.51953125 31.37109375 C4.84277344 30.38496094 4.16601562 29.39882813 3.46875 28.3828125 C2.84033203 27.47160645 2.21191406 26.56040039 1.56445312 25.62158203 C0.1875 23.375 0.1875 23.375 0.1875 21.375 C-0.4725 21.375 -1.1325 21.375 -1.8125 21.375 C-2.04195312 21.88675781 -2.27140625 22.39851563 -2.5078125 22.92578125 C-4.31242823 26.31348802 -6.49987775 29.41568954 -8.6875 32.5625 C-9.16638672 33.25504883 -9.64527344 33.94759766 -10.13867188 34.66113281 C-15.64173194 42.60248275 -21.16746848 50.53371199 -26.8125 58.375 C-27.47536011 59.46264648 -27.47536011 59.46264648 -28.15161133 60.57226562 C-29.8125 62.375 -29.8125 62.375 -32.17260742 62.82910156 C-33.07857666 62.8081543 -33.9845459 62.78720703 -34.91796875 62.765625 C-36.39233398 62.74628906 -36.39233398 62.74628906 -37.89648438 62.7265625 C-38.92064453 62.69304688 -39.94480469 62.65953125 -41 62.625 C-42.03576172 62.60695313 -43.07152344 62.58890625 -44.13867188 62.5703125 C-46.69754284 62.52314437 -49.25455842 62.45734057 -51.8125 62.375 C-50.53342638 59.6959983 -49.13716897 57.27903513 -47.4140625 54.86328125 C-46.70455444 53.86373413 -46.70455444 53.86373413 -45.98071289 52.84399414 C-45.47145264 52.13235107 -44.96219238 51.42070801 -44.4375 50.6875 C-43.34494381 49.15111866 -42.25249893 47.61465815 -41.16015625 46.078125 C-40.60215332 45.29501953 -40.04415039 44.51191406 -39.46923828 43.70507812 C-37.41574708 40.81699677 -35.37729459 37.91852373 -33.33959961 35.01928711 C-30.83913292 31.46511483 -28.3264813 27.91962029 -25.8125 24.375 C-25.24789062 23.57755371 -24.68328125 22.78010742 -24.1015625 21.95849609 C-22.36477087 19.51010233 -20.62086775 17.0669278 -18.875 14.625 C-18.34334229 13.87420166 -17.81168457 13.12340332 -17.26391602 12.34985352 C-8.64513878 0.34527436 -8.64513878 0.34527436 0 0 Z " fill="#0461A3" transform="translate(695.8125,468.625)"/>
<path d="M0 0 C8.72250428 0.85002628 15.17035216 8.89503618 21.1875 14.6875 C28.80981403 21.98354011 36.67515362 28.88227453 44.6875 35.75 C44.6875 24.2 44.6875 12.65 44.6875 0.75 C50.6275 0.75 56.5675 0.75 62.6875 0.75 C62.76166103 8.49127099 62.81610822 16.23233513 62.85229492 23.97387695 C62.86738057 26.60737714 62.88785166 29.24085221 62.91381836 31.87426758 C62.95021019 35.65973104 62.9672289 39.44486227 62.98046875 43.23046875 C62.99595261 44.40772018 63.01143646 45.58497162 63.02738953 46.79789734 C63.02761612 47.89866104 63.02784271 48.99942474 63.02807617 50.13354492 C63.03806892 51.58249397 63.03806892 51.58249397 63.04826355 53.06071472 C62.61477233 56.29214304 61.60596176 58.13177238 59.6875 60.75 C56.15756526 63.10328983 54.23863025 63.35816877 50.09033203 63.25830078 C45.49799129 62.28682614 42.76787345 58.98580735 39.625 55.6875 C38.30208269 54.36198109 36.97786522 53.03775849 35.65234375 51.71484375 C34.99927246 51.05218506 34.34620117 50.38952637 33.67333984 49.70678711 C31.10182932 47.17289765 28.39667766 44.82195429 25.66235352 42.46655273 C22.4325054 39.6591523 19.31381999 36.73404757 16.1875 33.8125 C14.0425 31.811875 11.8975 29.81125 9.6875 27.75 C9.3575 39.3 9.0275 50.85 8.6875 62.75 C2.7475 62.75 -3.1925 62.75 -9.3125 62.75 C-9.43619279 54.8846611 -9.52688726 47.01988967 -9.5871582 39.15380859 C-9.60946178 36.47819073 -9.646386 33.80391007 -9.68969727 31.12841797 C-9.7504198 27.28075234 -9.7787284 23.43399523 -9.80078125 19.5859375 C-9.82658768 18.39197357 -9.8523941 17.19800964 -9.87898254 15.96786499 C-9.88210693 6.69611577 -9.88210693 6.69611577 -6.91796875 2.99755859 C-3.35767689 -0.07366019 -3.35767689 -0.07366019 0 0 Z " fill="#032553" transform="translate(420.3125,468.25)"/>
<path d="M0 0 C2.51294016 1.24682964 5.00986289 2.52013005 7.50390625 3.8046875 C22.46041107 11.46758812 35.80708321 15.6803464 52.69921875 16.75390625 C55 17 55 17 56 18 C56.08847743 20.52094076 56.11527301 23.01430893 56.09765625 25.53515625 C56.0962413 26.28840683 56.09482635 27.04165741 56.09336853 27.81773376 C56.08775376 30.2326956 56.07519883 32.64756601 56.0625 35.0625 C56.0574869 36.69596221 56.05292366 38.32942586 56.04882812 39.96289062 C56.03777954 43.97529585 56.02050506 47.98763241 56 52 C55.29149902 52.05768555 54.58299805 52.11537109 53.85302734 52.17480469 C36.53387889 53.65437401 21.65650911 58.09564356 6.58203125 66.64453125 C4 68 4 68 2 68 C-4.7424076 47.48969903 -7.90522601 28.23000767 -2 7 C-1.78730469 6.20464844 -1.57460937 5.40929687 -1.35546875 4.58984375 C-0.93055469 3.0522051 -0.47169521 1.52393838 0 0 Z " fill="#F9FBFC" transform="translate(92,469)"/>
<path d="M0 0 C6.80991611 19.85212153 7.37313084 46.1803231 -1.63671875 65.51171875 C-2.31154297 66.74341797 -2.31154297 66.74341797 -3 68 C-6.41147568 66.6958012 -9.68140419 65.19884732 -12.95849609 63.58862305 C-27.08288764 56.72358101 -40.01405567 53.88069933 -56 52 C-56 40.45 -56 28.9 -56 17 C-53.256875 16.731875 -50.51375 16.46375 -47.6875 16.1875 C-32.03328465 14.49556845 -17.11131035 9.76115752 -3.85546875 1.1015625 C-2 0 -2 0 0 0 Z " fill="#FAFBFC" transform="translate(208,469)"/>
<path d="M0 0 C0 23.76 0 47.52 0 72 C-18.37561118 72 -39.72169989 66.14721054 -54 54 C-50.63535085 42.78450282 -43.73222538 32.67842504 -36 24 C-35.00419922 22.88044922 -35.00419922 22.88044922 -33.98828125 21.73828125 C-26.34827371 13.64636938 -11.75173318 0 0 0 Z " fill="#F8FAFB" transform="translate(148,411)"/>
<path d="M0 0 C1.1679007 0.0028299 2.33580139 0.00565979 3.53909302 0.00857544 C7.25793841 0.01974277 10.97654027 0.04484146 14.6953125 0.0703125 C17.22135068 0.08034674 19.74739265 0.08947181 22.2734375 0.09765625 C28.45581183 0.11967085 34.63804476 0.15311435 40.8203125 0.1953125 C39.90741455 1.77675049 39.90741455 1.77675049 38.97607422 3.39013672 C37.75230311 5.51336789 36.6375031 7.58996617 35.60595703 9.81689453 C33.95276272 12.74235989 32.62375613 14.293962 29.8203125 16.1953125 C23.30623646 17.78132382 16.34375825 17.22902562 9.6953125 17.0703125 C6.94043178 17.03659303 4.18626416 17.0157228 1.43118286 17.01028442 C-0.2774292 17.00357415 -1.98609251 16.97891149 -3.69412231 16.93380737 C-8.37013761 16.87817151 -11.39170613 17.13048301 -15.1796875 20.1953125 C-18.07519181 24.58849146 -18.73847116 27.97999833 -18.1796875 33.1953125 C-16.55168013 38.28283552 -14.0017519 40.48275171 -9.58813477 43.13656616 C-5.15129863 45.08698629 -0.67811148 44.92097931 4.1015625 44.90234375 C5.15565308 44.91746506 6.20974365 44.93258636 7.29577637 44.94816589 C10.63750857 44.99089377 13.97833485 44.99986688 17.3203125 45.0078125 C19.596378 45.03096826 21.87242214 45.05633583 24.1484375 45.08398438 C29.70573791 45.14668925 35.26268644 45.18174164 40.8203125 45.1953125 C39.83657553 46.90658587 38.85266359 48.61775903 37.86761475 50.32827759 C37.0424161 51.79936646 36.27737297 53.30420098 35.53564453 54.8190918 C33.87794505 57.6342652 32.49787782 59.28797055 29.8203125 61.1953125 C24.56285407 62.26816723 19.54489341 62.28224912 14.19824219 62.09399414 C11.72141515 62.00871127 9.2515919 61.99151152 6.7734375 61.98632812 C-7.41701522 61.82202596 -19.29253655 59.63607687 -29.890625 49.5703125 C-35.55447168 43.6025521 -37.30926355 37.25225499 -37.5546875 29.1328125 C-37.31736634 21.34076787 -35.35185595 15.64026291 -30.05078125 9.86328125 C-20.92426265 1.72753293 -11.8531269 -0.10843758 0 0 Z " fill="#042452" transform="translate(273.1796875,468.8046875)"/>
<path d="M0 0 C10.47310792 3.49103597 18.64517909 8.87259852 27 16 C27.69996094 16.56589844 28.39992187 17.13179688 29.12109375 17.71484375 C36.96253797 24.21116693 42.64256247 32.12920297 47.9375 40.75 C48.52229126 41.68875977 48.52229126 41.68875977 49.11889648 42.64648438 C51.37077562 46.42285911 52.57690966 49.62135075 53 54 C36.75634861 66.01766078 20.12489714 71 0 71 C0 47.57 0 24.14 0 0 Z " fill="#FBFCFD" transform="translate(152,411)"/>
<path d="M0 0 C0 21.12 0 42.24 0 64 C-17.12669815 60.57466037 -32.97538191 45.70440141 -42.875 31.875 C-51 19.59939759 -51 19.59939759 -51 15 C-34.68370554 5.67309693 -19.05357313 0 0 0 Z " fill="#F8FAFB" transform="translate(148,525)"/>
<path d="M0 0 C3.84659015 1.57076535 6.20270385 4.0323684 9.0625 7 C11.65493955 9.68210288 13.89183762 11.92789175 17 14 C16.80664062 14.76183594 16.61328125 15.52367187 16.4140625 16.30859375 C16.15367188 17.34113281 15.89328125 18.37367188 15.625 19.4375 C15.24214844 20.95150391 15.24214844 20.95150391 14.8515625 22.49609375 C14.57054688 23.65238281 14.28953125 24.80867188 14 26 C13.82355957 26.65959717 13.64711914 27.31919434 13.46533203 27.9987793 C11.87817914 34.32243564 11.6154843 40.43426871 11.625 46.9375 C11.62588623 48.03199463 11.62677246 49.12648926 11.62768555 50.25415039 C11.76712568 59.93639159 13.33485477 68.72453041 16 78 C16.30808594 79.09699219 16.61617187 80.19398438 16.93359375 81.32421875 C17.58645484 83.56393839 18.26569407 85.78595636 19 88 C17.21371169 89.67277835 15.4214925 91.33824443 13.625 93 C13.11710937 93.47695313 12.60921875 93.95390625 12.0859375 94.4453125 C8.2265625 98 8.2265625 98 6 98 C5.67 98.99 5.34 99.98 5 101 C4.34 101 3.68 101 3 101 C-11.43749168 81.01821384 -16.19218448 55.34789567 -12.34375 31.23828125 C-10.22172252 20.44816673 -6.11112628 9.16668942 0 0 Z " fill="#F9FBFC" transform="translate(72,452)"/>
<path d="M0 0 C12.1127017 0 22.2812212 2.44718405 33.4375 6.875 C34.26540039 7.20242188 35.09330078 7.52984375 35.94628906 7.8671875 C41.32540737 10.08555929 46.17000674 12.75887518 51 16 C43.85043903 35.81873118 26.62093575 51.12087393 8.5703125 60.80859375 C5.80457349 62.09058524 2.89197735 63.03600755 0 64 C0 42.88 0 21.76 0 0 Z " fill="#FBFCFD" transform="translate(152,525)"/>
<path d="M0 0 C1.29808594 -0.00386719 2.59617187 -0.00773437 3.93359375 -0.01171875 C4.60342285 -0.00543457 5.27325195 0.00084961 5.96337891 0.00732422 C7.99580603 0.02334287 10.02622902 0.00746843 12.05859375 -0.01171875 C27.24055826 0.03342089 27.24055826 0.03342089 33.09375 5.09375 C35.60853042 10.67164642 34.98826818 17.47091833 34.1328125 23.3984375 C32.31979631 26.45060202 30.39174642 28.03056775 27.1328125 29.3984375 C20.76606983 30.94537839 14.27196869 30.66285072 7.7578125 30.7109375 C6.45585938 30.73994141 5.15390625 30.76894531 3.8125 30.79882812 C-3.25790496 30.84572367 -8.21901605 30.86481262 -13.8671875 26.3984375 C-17.6950422 21.33579096 -17.67508416 15.49851117 -16.8671875 9.3984375 C-13.41651476 1.96621928 -7.86874564 0.02267028 0 0 Z " fill="#FAFCFD" transform="translate(891.8671875,484.6015625)"/>
<path d="M0 0 C1.07242699 -0.00642769 1.07242699 -0.00642769 2.16651917 -0.01298523 C3.67521101 -0.01871529 5.18393048 -0.01923855 6.69262695 -0.01489258 C8.99283286 -0.01173396 11.29174996 -0.03520133 13.59179688 -0.06054688 C15.0611963 -0.06282026 16.53059917 -0.06352318 18 -0.0625 C18.68348007 -0.07170975 19.36696014 -0.08091949 20.07115173 -0.09040833 C25.78208185 -0.03546179 28.85151458 1.60353855 32.84375 5.5546875 C36.06329453 10.6869773 35.33915109 16.46758351 34.56640625 22.30078125 C33.31693677 25.50794485 32.45809477 26.13201486 29.56640625 28.30078125 C22.73496287 30.55703778 16.21651049 30.60155122 9.06640625 30.55078125 C7.43251953 30.56238281 7.43251953 30.56238281 5.765625 30.57421875 C-0.30074596 30.55954796 -5.66693446 30.25195681 -11.43359375 28.30078125 C-16.64610785 22.95461295 -16.83327725 18.77387612 -16.78515625 11.515625 C-16.27076909 6.81184015 -15.01461408 5.3120938 -11.43359375 2.30078125 C-7.8091826 -0.08906 -4.20461965 -0.00559022 0 0 Z " fill="#FBFCFC" transform="translate(351.43359375,484.69921875)"/>
<path d="M0 0 C-0.94359375 0.59425781 -1.8871875 1.18851562 -2.859375 1.80078125 C-21.11946222 13.49995721 -38.91611583 29.74834749 -46 51 C-49.99432781 49.37938967 -52.79558321 46.60660827 -55.8125 43.625 C-56.32748047 43.14289063 -56.84246094 42.66078125 -57.37304688 42.1640625 C-60.9791281 38.61108287 -60.9791281 38.61108287 -61.0703125 35.94140625 C-53.83511834 22.81771465 -39.95341459 13.71375325 -27 7 C-26.20722656 6.58878906 -25.41445312 6.17757813 -24.59765625 5.75390625 C-6.9872878 -2.67414718 -6.9872878 -2.67414718 0 0 Z " fill="#F6F8FA" transform="translate(137,411)"/>
<path d="M0 0 C18.33393048 2.43172551 34.06720482 9.91086391 48 22 C49.03125 22.78375 50.0625 23.5675 51.125 24.375 C55.27521266 28.1643246 58.59190592 32.54525774 62 37 C54.50807899 47.81251603 54.50807899 47.81251603 49 51 C46 50 46 50 44.4921875 47.48046875 C43.95851562 46.39378906 43.42484375 45.30710937 42.875 44.1875 C39.29438244 37.16968471 34.9045097 31.17743589 30 25 C29.21625 23.948125 28.4325 22.89625 27.625 21.8125 C21.12005518 14.84291626 13.45163765 9.40549126 5.3125 4.5078125 C3.24087291 3.15705564 1.65742488 1.82098655 0 0 Z " fill="#F6F8FA" transform="translate(162,410)"/>
<path d="M0 0 C0.4846875 0.89460937 0.969375 1.78921875 1.46875 2.7109375 C5.69757909 10.39148039 10.13986704 17.4241256 16 24 C16.67546875 24.75796875 17.3509375 25.5159375 18.046875 26.296875 C24.7218435 33.36162268 32.52354642 38.78813398 40.890625 43.6953125 C41.58671875 44.12585938 42.2828125 44.55640625 43 45 C43 45.33 43 45.66 43 46 C25.81234482 44.65194861 8.61702326 36.65122506 -4 25 C-4.49467773 24.55156738 -4.98935547 24.10313477 -5.49902344 23.64111328 C-14.94565235 15.01125444 -14.94565235 15.01125444 -15.109375 11.96484375 C-13.53225014 9.1715557 -11.47977747 7.41071072 -9.0625 5.3125 C-8.16660156 4.52488281 -7.27070312 3.73726562 -6.34765625 2.92578125 C-2.78093306 0 -2.78093306 0 0 0 Z " fill="#F5F7F9" transform="translate(94,544)"/>
<path d="M0 0 C3.71045247 1.57780923 6.29906384 3.90703248 9.25 6.625 C10.14203125 7.44226563 11.0340625 8.25953125 11.953125 9.1015625 C12.96632813 10.04128906 12.96632813 10.04128906 14 11 C12.43182818 19.75078596 2.82687662 26.1969379 -4 31 C-16.19554711 38.7883885 -28.49199393 44.24858305 -43 46 C-40.22446646 43.02529622 -37.50826622 40.97876799 -34 38.9375 C-18.90542334 29.47072822 -7.83805739 15.89914894 0 0 Z " fill="#F7F9FA" transform="translate(206,544)"/>
<path d="M0 0 C0.66 0.33 1.32 0.66 2 1 C1.67 1.99 1.34 2.98 1 4 C-1.31 4.33 -3.62 4.66 -6 5 C-2.25 1.125 -2.25 1.125 0 0 Z " fill="#D7E1E8" transform="translate(169,585)"/>
</svg>
