<?xml version="1.0" standalone="no"?>
<!DOCTYPE svg PUBLIC "-//W3C//DTD SVG 20010904//EN"
 "http://www.w3.org/TR/2001/REC-SVG-20010904/DTD/svg10.dtd">
<svg version="1.0" xmlns="http://www.w3.org/2000/svg"
 width="2048.000000pt" height="1152.000000pt" viewBox="0 0 2048.000000 1152.000000"
 preserveAspectRatio="xMidYMid meet">

<g transform="translate(0.000000,1152.000000) scale(0.100000,-0.100000)"
fill="#000000" stroke="none">
<path d="M3625 7889 c-22 -5 -91 -18 -154 -29 -228 -42 -493 -154 -681 -287
-122 -87 -316 -281 -402 -403 -83 -117 -196 -342 -237 -470 -59 -191 -75 -303
-75 -530 0 -254 24 -397 105 -605 92 -240 225 -440 411 -621 277 -269 581
-416 982 -474 159 -24 248 -25 392 -5 384 53 678 181 951 416 116 99 233 237
233 274 0 33 -86 125 -212 228 -49 39 -88 74 -88 77 0 4 11 33 24 66 31 75 69
212 93 329 14 72 18 136 17 325 0 217 -2 244 -27 356 -15 67 -36 148 -47 180
-11 33 -20 62 -20 65 0 4 39 40 86 80 97 84 234 236 234 260 0 27 -130 187
-231 285 -180 173 -365 290 -599 377 -246 91 -595 141 -755 106z m-65 -96 c0
-5 -33 -26 -72 -48 -39 -22 -111 -69 -159 -105 -249 -185 -420 -390 -560 -668
l-56 -114 -69 60 c-87 75 -194 187 -194 202 0 7 15 31 33 53 244 310 572 519
952 607 88 20 125 24 125 13z m577 -14 c258 -56 497 -175 714 -356 79 -65 209
-203 261 -276 l21 -29 -126 -124 c-70 -68 -133 -124 -140 -124 -8 0 -24 24
-36 53 -98 236 -330 527 -556 697 -92 69 -218 150 -234 150 -5 0 -14 7 -21 15
-17 21 -2 20 117 -6z m-387 -634 c0 -576 -2 -646 -16 -652 -19 -7 -202 13
-304 33 -183 37 -444 145 -590 244 -71 48 -71 38 1 181 145 291 367 535 644
706 82 51 239 132 258 133 4 0 7 -290 7 -645z m219 580 c69 -36 169 -96 221
-133 116 -82 315 -278 393 -388 103 -146 215 -359 203 -389 -13 -35 -271 -173
-421 -225 -159 -55 -484 -114 -530 -96 -13 5 -15 90 -15 644 0 351 3 642 7
645 10 10 6 12 142 -58z m-1513 -728 c54 -58 151 -148 201 -187 l32 -25 -29
-93 c-112 -358 -96 -804 43 -1165 l26 -67 -52 -41 c-29 -22 -91 -76 -138 -120
l-87 -79 -24 33 c-119 159 -226 426 -264 663 -23 143 -23 383 0 519 20 116 73
296 119 398 40 90 109 217 118 217 3 0 28 -24 55 -53z m2408 -396 c42 -178 50
-248 50 -436 -1 -124 -6 -209 -18 -275 -30 -163 -97 -380 -117 -380 -6 0 -42
18 -81 41 -217 127 -513 220 -743 235 -49 3 -100 7 -113 10 l-22 4 2 308 3
307 35 2 c204 14 414 57 570 118 107 41 265 121 335 169 63 43 65 41 99 -103z
m-2061 105 c47 -35 210 -120 302 -157 169 -68 371 -114 550 -127 l90 -7 3
-307 2 -308 -22 -4 c-13 -3 -63 -7 -112 -11 -240 -15 -560 -120 -766 -250 -23
-15 -48 -24 -55 -21 -17 6 -90 238 -112 356 -14 72 -18 146 -18 305 0 212 6
263 46 427 35 140 38 144 92 104z m947 -1567 l0 -580 -22 7 c-33 10 -153 70
-223 112 -249 147 -507 418 -632 660 l-48 93 25 19 c44 34 232 127 333 164
160 60 367 102 510 105 l57 1 0 -581z m260 566 c126 -17 208 -35 332 -75 100
-32 335 -145 381 -182 l28 -23 -43 -80 c-134 -248 -329 -460 -574 -626 -92
-62 -291 -162 -304 -154 -11 7 -14 1137 -3 1148 10 11 67 8 183 -8z m-1186
-429 c32 -57 88 -144 124 -192 132 -178 370 -389 544 -482 105 -57 89 -66 -60
-32 -334 74 -669 272 -877 516 l-56 67 53 55 c65 66 189 172 203 172 6 -1 36
-47 69 -104z m2060 55 c33 -27 90 -79 125 -114 l64 -65 -39 -47 c-67 -82 -225
-223 -324 -290 -177 -118 -393 -210 -588 -250 -123 -25 -128 -17 -26 43 281
165 549 446 689 721 14 28 28 51 31 51 4 0 34 -22 68 -49z"/>
<path d="M5870 6733 c-321 -54 -530 -264 -530 -533 0 -283 233 -511 563 -551
45 -5 210 -8 366 -7 l285 3 103 135 c57 74 103 138 103 142 0 4 -199 8 -442
10 l-443 3 -51 27 c-64 34 -118 95 -134 154 -20 69 -8 175 23 223 29 44 97 88
155 102 20 5 182 9 359 9 l322 0 105 140 c58 76 106 141 106 144 0 7 -852 6
-890 -1z"/>
<path d="M7380 6734 c-116 -20 -205 -41 -260 -64 -173 -70 -273 -182 -309
-348 -14 -68 -14 -226 0 -294 62 -288 353 -431 844 -415 222 8 344 32 471 93
182 89 274 247 274 472 0 280 -142 452 -437 529 -88 22 -121 25 -328 28 -126
2 -241 2 -255 -1z m403 -284 c140 -14 216 -51 254 -125 22 -40 29 -189 13
-255 -17 -72 -66 -120 -145 -142 -98 -28 -109 -29 -310 -29 -293 0 -390 31
-437 139 -26 59 -29 217 -6 272 34 80 116 126 251 140 105 11 268 11 380 0z"/>
<path d="M8605 6721 c-16 -10 -38 -27 -48 -39 -44 -49 -46 -73 -47 -575 l0
-477 163 2 162 3 2 307 c1 170 5 308 9 309 6 1 92 -76 472 -423 112 -103 219
-194 237 -202 41 -20 117 -21 153 -2 43 22 79 67 96 119 14 41 16 113 16 511
0 414 -2 465 -16 470 -9 3 -83 6 -165 6 l-149 0 -2 -321 -3 -320 -340 310
c-187 171 -354 318 -372 326 -44 21 -131 19 -168 -4z"/>
<path d="M13550 6723 c-69 -29 -76 -38 -395 -488 -109 -154 -250 -351 -312
-438 -62 -87 -113 -162 -113 -167 0 -6 76 -10 193 -9 l192 0 260 370 c143 203
263 369 266 369 4 0 18 -17 30 -37 13 -21 44 -67 70 -103 127 -180 207 -299
201 -304 -3 -3 -109 -6 -236 -6 l-231 -1 -97 -137 c-53 -75 -94 -140 -92 -144
3 -4 287 -8 631 -8 552 0 624 2 619 15 -8 23 -677 985 -711 1024 -63 72 -189
101 -275 64z"/>
<path d="M17105 6724 c-189 -29 -314 -83 -405 -174 -122 -120 -170 -331 -120
-524 25 -99 60 -162 123 -225 96 -95 233 -149 447 -176 157 -19 263 -19 419 0
223 28 353 79 453 177 96 93 138 207 138 373 0 203 -63 337 -205 435 -124 86
-337 131 -606 129 -85 -1 -194 -8 -244 -15z m472 -275 c152 -20 223 -74 244
-185 13 -69 6 -177 -14 -225 -19 -47 -66 -89 -124 -111 -113 -44 -511 -46
-634 -3 -109 38 -153 114 -152 260 1 121 41 197 123 233 84 38 386 55 557 31z"/>
<path d="M9980 6593 c-58 -74 -106 -139 -108 -144 -2 -5 113 -9 262 -9 l266 0
2 -407 3 -408 168 -3 167 -2 0 410 0 410 685 0 c733 0 725 1 770 -50 15 -16
20 -36 20 -77 0 -50 -3 -58 -33 -83 -21 -17 -50 -30 -79 -34 -25 -3 -268 -6
-539 -6 l-494 0 0 -285 0 -285 165 0 165 0 0 150 0 150 253 0 252 0 140 -150
140 -150 212 0 c116 0 214 4 217 8 3 5 -67 80 -155 168 -87 87 -159 162 -159
166 0 4 27 21 61 39 150 80 222 239 184 407 -38 165 -148 253 -379 303 -85 18
-141 19 -1085 19 l-996 -1 -105 -136z"/>
<path d="M14260 6599 c-56 -73 -104 -138 -107 -145 -4 -12 41 -14 261 -14
l266 0 0 -410 0 -410 163 2 162 3 3 408 2 407 420 0 420 0 2 -407 3 -408 162
-3 163 -2 2 407 3 408 174 5 174 5 109 138 c59 75 108 139 108 142 0 3 -537 5
-1194 5 l-1194 0 -102 -131z"/>
</g>
</svg>
